<svg width="194" height="46" viewBox="0 0 194 46" fill="none" xmlns="http://www.w3.org/2000/svg">
<path d="M5.29499 42.1188C5.26171 42.435 5.2201 42.7429 5.17018 43.0424L4.84567 43.2421H4.49619C2.21628 43.2421 1.03472 39.789 0.951507 32.8827C0.868298 25.9597 1.21777 20.1684 1.99993 15.5087V14.1608C1.99993 13.129 2.40766 10.9656 3.2231 7.6705C3.55593 6.28923 3.72235 5.13263 3.72235 4.2007V3.62656C3.72235 3.34365 3.4228 2.61974 2.8237 1.45482V1.25512C2.85698 0.98885 2.97347 0.855718 3.17317 0.855718H3.69739C5.79424 0.40639 7.74132 0.539523 9.53863 1.25512C9.92139 0.839074 10.2542 0.631053 10.5371 0.631053C11.9184 0.631053 13.9237 1.36329 16.5531 2.82776C22.9102 7.10468 25.8142 11.2651 25.265 15.309L25.2401 15.5087C24.9738 17.4558 23.6092 19.2198 21.1462 20.8008C20.6636 21.0504 20.2392 21.2668 19.8731 21.4498C23.2181 23.5467 25.2068 25.4854 25.8392 27.2661C26.5048 29.13 26.1887 31.4931 24.8906 34.3555C23.2431 36.7019 21.7453 38.1997 20.3973 38.8487C20.4473 39.0318 19.1991 39.8639 16.653 41.345C13.7074 42.9426 11.261 43.7414 9.31396 43.7414C7.83285 43.7414 6.49319 43.2005 5.29499 42.1188ZM11.935 5.69845C11.4191 8.07822 10.7701 11.7893 9.98795 16.8318C9.20579 19.0784 8.28218 23.322 7.21711 29.5627C7.48338 29.4961 7.76628 29.4628 8.06584 29.4628H9.71336C9.82986 29.4794 9.91306 29.546 9.96299 29.6625L10.0129 29.7624C10.2126 30.3615 9.82986 31.5929 8.86464 33.4568C8.56509 34.4054 8.38203 35.2708 8.31546 36.0529L8.59005 36.8517C8.72318 37.1013 9.16419 37.3343 9.91306 37.5507C10.9948 37.5507 13.3579 36.3858 17.0024 34.0559C19.6318 31.7594 20.6553 29.7956 20.0728 28.1648C19.6734 27.0664 18.1424 26.2759 15.4797 25.7933C12.817 25.2941 11.5107 24.4537 11.5606 23.2721C11.6272 22.0905 12.8586 20.8174 15.2551 19.4528C17.6515 18.0882 18.9329 16.1078 19.0993 13.5117C19.3323 11.9141 18.1091 10.0503 15.4298 7.92012C14.1151 6.88833 12.9502 6.14778 11.935 5.69845ZM29.7052 1.40489H30.0797C32.4594 0.805792 34.5646 1.42986 36.3952 3.27708V3.77634C35.9791 5.40722 35.3884 9.15161 34.6229 15.0095C33.7076 18.0882 32.551 25.5354 31.1531 37.351L30.9034 37.5007H30.6538C29.0063 37.5007 28.1492 34.5635 28.0827 28.689C28.0327 22.7978 28.2907 17.8635 28.8565 13.8862V12.7379C28.8565 11.8559 29.1477 10.0087 29.7302 7.19621C29.9798 6.03129 30.1046 5.04943 30.1046 4.25063V3.77634C30.1046 3.54335 29.8883 2.92761 29.4556 1.9291V1.75437C29.4722 1.52139 29.5555 1.40489 29.7052 1.40489ZM52.3685 16.4823H53.6167C56.0297 16.7652 57.2362 17.1812 57.2362 17.7304V18.1548C57.203 18.4044 55.206 19.2864 51.2452 20.8008C48.5992 21.999 46.6022 23.8046 45.2542 26.2177L44.9796 27.1912V27.4658C45.3624 28.2147 45.8284 28.5891 46.3775 28.5891H47.0765C48.3912 28.5891 50.6128 26.875 53.7415 23.4468C55.2226 22.0489 56.3875 21.35 57.2362 21.35H57.6356C57.7688 21.35 58.0517 21.6246 58.4844 22.1737V23.0225C57.5025 29.6958 56.3875 33.0325 55.1394 33.0325H54.9896C54.0743 32.5498 53.1507 31.1103 52.2188 28.7139H51.9442C48.1332 31.2268 45.3041 32.4833 43.4569 32.4833C41.3268 32.4833 39.7957 31.4182 38.8638 29.2881C38.8638 29.0052 38.7723 28.3977 38.5892 27.4658C38.5892 23.6216 41.7428 20.2849 48.05 17.4558C50.1469 16.8068 51.5864 16.4823 52.3685 16.4823ZM72.1577 15.6335L73.3808 15.3839C75.7939 15.1842 77.0586 15.3756 77.1751 15.9581L77.25 16.3824C77.2667 16.6653 75.2364 18.1548 71.1592 20.8507C69.2786 22.3318 67.9057 24.4786 67.0403 27.2911L66.9654 28.3645L67.0154 28.664C67.5313 29.363 68.0555 29.6542 68.588 29.5377L69.262 29.3879C70.5601 29.1217 71.725 28.2979 72.7568 26.9166C73.7885 25.5354 74.7122 24.7615 75.5276 24.5951L75.952 24.5202C76.0685 24.4869 76.393 24.7199 76.9255 25.2192L77.0753 26.0929L73.8052 30.012L73.5306 30.0869C70.6349 32.4666 68.2801 33.8479 66.4662 34.2307C64.3693 34.6633 62.6636 33.8562 61.3489 31.8093C61.2989 31.5097 61.0909 30.894 60.7248 29.9621C59.9926 25.9181 62.4472 21.7743 68.0888 17.5307C70.0358 16.4157 71.3921 15.7833 72.1577 15.6335ZM83.0875 2.52821H83.5618C84.9098 2.52821 86.4159 3.81794 88.08 6.3974C87.5974 17.9634 87.4477 23.7464 87.6307 23.7464C89.7775 21.1669 91.5998 19.8772 93.0975 19.8772C97.9735 21.7244 98.115 24.9862 93.5219 29.6625C97.0166 30.9273 99.879 32.5998 102.109 34.68V35.0045C101.943 35.5537 101.244 35.8283 100.012 35.8283H99.2133C96.1513 35.8283 92.2821 33.4984 87.6058 28.8387C92.9477 28.0566 93.8714 26.8417 90.3766 25.1942C89.3615 25.1942 88.5543 27.3992 87.9552 31.8093C87.0566 32.5082 85.1761 33.2571 82.3137 34.0559C80.9657 34.0559 80.1586 33.1406 79.8923 31.31C81.0739 26.7668 82.1889 18.4626 83.2373 6.3974C83.2373 5.86487 83.0792 4.8414 82.763 3.32701V2.85272C82.7963 2.63638 82.9045 2.52821 83.0875 2.52821ZM123.032 2.10384C123.082 2.03728 123.157 2.004 123.257 2.004H123.781C125.728 1.57131 127.542 1.65452 129.223 2.25362C129.938 2.30354 130.629 2.37011 131.295 2.45332L132.318 2.42836C133.1 2.37843 134.773 2.6031 137.336 3.10235C138.401 3.30205 139.291 3.38526 140.007 3.35197L140.431 3.32701C140.631 3.31037 141.172 3.06074 142.054 2.57813H142.203C142.42 2.59478 142.536 2.67798 142.553 2.82776V3.2022C143.202 5.63189 142.744 7.82859 141.18 9.79231L140.731 9.81727C139.366 9.50108 136.354 9.09336 131.694 8.59411C131.245 10.9739 130.704 14.244 130.072 18.4044C128.807 22.1155 127.201 31.0937 125.254 45.339L124.929 45.5137H124.58C122.3 45.5137 121.118 41.969 121.035 34.8797C120.952 27.7903 121.301 21.8492 122.084 17.0564V15.6585C122.084 14.5934 122.491 12.3635 123.307 8.96855C123.457 8.3528 123.573 7.77034 123.656 7.22117C120.245 6.77184 115.793 6.29755 110.301 5.7983L110.152 5.57364V5.29905C110.068 3.6016 112.673 2.59477 117.965 2.27858C119.745 2.17873 121.435 2.12049 123.032 2.10384ZM149.918 9.96705H150.666C154.211 10.899 157.123 12.7545 159.403 15.5337C161.001 17.3643 161.8 19.6692 161.8 22.4483C161.8 27.0082 159.994 30.869 156.383 34.031C154.536 34.8298 153.179 35.2292 152.314 35.2292C149.834 35.2292 147.579 34.1225 145.549 31.9091C144.65 30.3448 144.201 29.4462 144.201 29.2132H143.902V29.363L143.602 27.2661C143.768 24.5535 144.767 21.6412 146.598 18.5292C148.545 16.5322 150.2 15.5337 151.565 15.5337C153.462 15.5337 155.168 16.5821 156.682 18.679V19.1283C156.682 20.1435 156.333 20.651 155.634 20.651C155.085 20.651 154.336 20.5512 153.387 20.3515C152.156 20.3515 151.299 22.207 150.816 25.9181C150.816 27.2328 151.365 28.3312 152.464 29.2132H152.614C153.612 29.2132 154.918 27.9068 156.533 25.2941C157.331 23.8462 157.731 22.698 157.731 21.8492V19.7524C157.465 18.2213 156.666 16.6653 155.334 15.0844C154.502 13.9527 152.597 13.0458 149.618 12.3635C149.219 12.0639 149.019 11.7644 149.019 11.4648C149.019 10.8158 149.318 10.3165 149.918 9.96705ZM165.216 2.52821H165.691C167.039 2.52821 168.545 3.81794 170.209 6.3974C169.726 17.9634 169.577 23.7464 169.76 23.7464C171.906 21.1669 173.729 19.8772 175.226 19.8772C180.102 21.7244 180.244 24.9862 175.651 29.6625C179.146 30.9273 182.008 32.5998 184.238 34.68V35.0045C184.071 35.5537 183.373 35.8283 182.141 35.8283H181.342C178.28 35.8283 174.411 33.4984 169.735 28.8387C175.077 28.0566 176 26.8417 172.506 25.1942C171.49 25.1942 170.683 27.3992 170.084 31.8093C169.185 32.5082 167.305 33.2571 164.443 34.0559C163.095 34.0559 162.287 33.1406 162.021 31.31C163.203 26.7668 164.318 18.4626 165.366 6.3974C165.366 5.86487 165.208 4.8414 164.892 3.32701V2.85272C164.925 2.63638 165.033 2.52821 165.216 2.52821ZM190.411 8.2696H190.936C192.217 8.2696 193.008 9.19321 193.307 11.0404V11.1653C193.307 12.5465 192.475 13.2954 190.811 13.4119C189.596 13.4119 188.672 12.5798 188.04 10.9156V10.3914C188.04 9.25978 188.83 8.5525 190.411 8.2696ZM184.52 14.66H184.895C188.606 14.66 191.368 15.3756 193.182 16.8068V17.1812C192.766 18.446 192.184 21.3333 191.435 25.8432C190.503 28.2064 189.787 30.8441 189.288 33.7564L189.039 33.8812H188.789C188.523 33.8812 187.815 32.3751 186.667 29.363C185.985 27.5157 185.644 26.0513 185.644 24.9695V24.0959C185.644 23.4135 185.943 21.9907 186.542 19.8273C186.792 18.9286 186.917 18.1714 186.917 17.5557V17.1812C186.917 16.9982 186.035 16.2909 184.271 15.0594V14.9346C184.304 14.7515 184.387 14.66 184.52 14.66Z" fill="white"/>
</svg>
