<?xml version="1.0" encoding="utf-8"?>
<!-- Generator: Adobe Illustrator 28.0.0, SVG Export Plug-In . SVG Version: 6.00 Build 0)  -->
<svg version="1.1" id="レイヤー_1" xmlns="http://www.w3.org/2000/svg" xmlns:xlink="http://www.w3.org/1999/xlink" x="0px"
	 y="0px" width="48px" height="48px" viewBox="0 0 48 48" style="enable-background:new 0 0 48 48;" xml:space="preserve">
<style type="text/css">
	.st0{fill:#D82122;}
</style>
<circle class="st0" cx="24" cy="24" r="24"/>
<path d="M33.3,14.7H14.7c-1.3,0-2.3,1.1-2.3,2.3l0,14c0,1.3,1,2.3,2.3,2.3h18.7c1.3,0,2.3-1,2.3-2.3V17
	C35.7,15.7,34.6,14.7,33.3,14.7z M32.9,19.6l-8.2,5.2c-0.4,0.2-0.9,0.2-1.2,0l-8.2-5.2c-0.1-0.1-0.2-0.2-0.3-0.3s-0.1-0.2-0.2-0.4
	c0-0.1,0-0.3,0-0.4c0-0.1,0.1-0.3,0.1-0.4c0.1-0.1,0.2-0.2,0.3-0.3c0.1-0.1,0.2-0.1,0.4-0.2c0.1,0,0.3,0,0.4,0
	c0.1,0,0.3,0.1,0.4,0.2l7.8,4.9l7.8-4.9c0.1-0.1,0.2-0.1,0.4-0.2c0.1,0,0.3,0,0.4,0s0.3,0.1,0.4,0.2c0.1,0.1,0.2,0.2,0.3,0.3
	s0.1,0.2,0.1,0.4c0,0.1,0,0.3,0,0.4c0,0.1-0.1,0.3-0.2,0.4C33.1,19.5,33,19.6,32.9,19.6z"/>
</svg>
